<mxfile host="65bd71144e">
    <diagram id="fjN8D4Odn0497USpxgly" name="Page-1">
        <mxGraphModel dx="843" dy="1308" grid="1" gridSize="10" guides="1" tooltips="1" connect="1" arrows="1" fold="1" page="1" pageScale="1" pageWidth="1169" pageHeight="827" background="#ffffff" math="0" shadow="0">
            <root>
                <mxCell id="0"/>
                <mxCell id="1" parent="0"/>
                <mxCell id="518" value="" style="rounded=0;whiteSpace=wrap;html=1;strokeColor=none;" parent="1" vertex="1">
                    <mxGeometry x="30" y="-810" width="710" height="100" as="geometry"/>
                </mxCell>
                <mxCell id="509" value="" style="rounded=0;whiteSpace=wrap;html=1;fillColor=#d5e8d4;strokeColor=#82b366;" parent="1" vertex="1">
                    <mxGeometry x="160" y="-760" width="410" height="40" as="geometry"/>
                </mxCell>
                <mxCell id="196" value="&lt;b&gt;Name&lt;/b&gt;" style="rounded=0;whiteSpace=wrap;html=1;align=center;fillColor=#dae8fc;strokeColor=#6c8ebf;" parent="1" vertex="1">
                    <mxGeometry x="40" y="-800" width="60" height="40" as="geometry"/>
                </mxCell>
                <mxCell id="423" value="int" style="rounded=0;whiteSpace=wrap;html=1;fillColor=#fff2cc;strokeColor=#d6b656;" parent="1" vertex="1">
                    <mxGeometry x="100" y="-760" width="60" height="40" as="geometry"/>
                </mxCell>
                <mxCell id="438" value="export" style="rounded=0;whiteSpace=wrap;html=1;fillColor=#e1d5e7;strokeColor=#9673a6;" parent="1" vertex="1">
                    <mxGeometry x="40" y="-760" width="60" height="40" as="geometry"/>
                </mxCell>
                <mxCell id="471" value="path" style="rounded=0;whiteSpace=wrap;html=1;" parent="1" vertex="1">
                    <mxGeometry x="170.5" y="-751.75" width="39.5" height="23.5" as="geometry"/>
                </mxCell>
                <mxCell id="472" value="Registry Path" style="rounded=0;whiteSpace=wrap;html=1;" parent="1" vertex="1">
                    <mxGeometry x="210" y="-751.75" width="90" height="23.5" as="geometry"/>
                </mxCell>
                <mxCell id="473" value="callback" style="rounded=0;whiteSpace=wrap;html=1;" parent="1" vertex="1">
                    <mxGeometry x="309.5" y="-751.75" width="60.5" height="23.5" as="geometry"/>
                </mxCell>
                <mxCell id="474" value="Export Callback" style="rounded=0;whiteSpace=wrap;html=1;" parent="1" vertex="1">
                    <mxGeometry x="370" y="-751.75" width="90" height="23.5" as="geometry"/>
                </mxCell>
                <mxCell id="501" value="&lt;b&gt;Parameters&lt;/b&gt;" style="rounded=0;whiteSpace=wrap;html=1;align=center;fillColor=#dae8fc;strokeColor=#6c8ebf;" parent="1" vertex="1">
                    <mxGeometry x="160" y="-800" width="410" height="40" as="geometry"/>
                </mxCell>
                <mxCell id="502" value="&lt;b&gt;Returns&lt;/b&gt;" style="rounded=0;whiteSpace=wrap;html=1;align=center;fillColor=#dae8fc;strokeColor=#6c8ebf;" parent="1" vertex="1">
                    <mxGeometry x="100" y="-800" width="60" height="40" as="geometry"/>
                </mxCell>
                <mxCell id="517" value="Export available parameters by path" style="rounded=0;whiteSpace=wrap;html=1;fillColor=#f5f5f5;strokeColor=#666666;fontColor=#333333;" parent="1" vertex="1">
                    <mxGeometry x="570" y="-760" width="220" height="40" as="geometry"/>
                </mxCell>
                <mxCell id="503" value="&lt;b&gt;Description&lt;/b&gt;" style="rounded=0;whiteSpace=wrap;html=1;align=center;fillColor=#dae8fc;strokeColor=#6c8ebf;" parent="1" vertex="1">
                    <mxGeometry x="570" y="-800" width="220" height="40" as="geometry"/>
                </mxCell>
                <mxCell id="519" value="" style="rounded=0;whiteSpace=wrap;html=1;fillColor=#d5e8d4;strokeColor=#82b366;" vertex="1" parent="1">
                    <mxGeometry x="160" y="-720" width="410" height="73" as="geometry"/>
                </mxCell>
                <mxCell id="520" value="int" style="rounded=0;whiteSpace=wrap;html=1;fillColor=#fff2cc;strokeColor=#d6b656;" vertex="1" parent="1">
                    <mxGeometry x="100" y="-720" width="60" height="73" as="geometry"/>
                </mxCell>
                <mxCell id="521" value="Export Callback" style="rounded=0;whiteSpace=wrap;html=1;fillColor=#e1d5e7;strokeColor=#9673a6;" vertex="1" parent="1">
                    <mxGeometry x="40" y="-720" width="60" height="73" as="geometry"/>
                </mxCell>
                <mxCell id="522" value="path" style="rounded=0;whiteSpace=wrap;html=1;" vertex="1" parent="1">
                    <mxGeometry x="170.5" y="-711.75" width="39.5" height="23.5" as="geometry"/>
                </mxCell>
                <mxCell id="523" value="Registry Path" style="rounded=0;whiteSpace=wrap;html=1;" vertex="1" parent="1">
                    <mxGeometry x="210" y="-711.75" width="90" height="23.5" as="geometry"/>
                </mxCell>
                <mxCell id="524" value="schema" style="rounded=0;whiteSpace=wrap;html=1;" vertex="1" parent="1">
                    <mxGeometry x="309.5" y="-711.75" width="60.5" height="23.5" as="geometry"/>
                </mxCell>
                <mxCell id="525" value="Schema" style="rounded=0;whiteSpace=wrap;html=1;" vertex="1" parent="1">
                    <mxGeometry x="370" y="-711.75" width="60" height="23.5" as="geometry"/>
                </mxCell>
                <mxCell id="526" value="Handle export of a specific parameter" style="rounded=0;whiteSpace=wrap;html=1;fillColor=#f5f5f5;strokeColor=#666666;fontColor=#333333;" vertex="1" parent="1">
                    <mxGeometry x="570" y="-720" width="220" height="73" as="geometry"/>
                </mxCell>
                <mxCell id="528" value="instance" style="rounded=0;whiteSpace=wrap;html=1;" vertex="1" parent="1">
                    <mxGeometry x="440" y="-711.75" width="60.5" height="23.5" as="geometry"/>
                </mxCell>
                <mxCell id="529" value="&lt;font style=&quot;font-size: 10px; line-height: 0.8;&quot;&gt;Schema Instance&lt;/font&gt;" style="rounded=0;whiteSpace=wrap;html=1;fontSize=10;" vertex="1" parent="1">
                    <mxGeometry x="500.5" y="-711.75" width="60" height="23.5" as="geometry"/>
                </mxCell>
                <mxCell id="530" value="value" style="rounded=0;whiteSpace=wrap;html=1;" vertex="1" parent="1">
                    <mxGeometry x="320" y="-679.25" width="60.5" height="23.5" as="geometry"/>
                </mxCell>
                <mxCell id="531" value="Registry Value" style="rounded=0;whiteSpace=wrap;html=1;fontSize=12;" vertex="1" parent="1">
                    <mxGeometry x="380.5" y="-679.25" width="89" height="23.5" as="geometry"/>
                </mxCell>
                <mxCell id="532" value="meta" style="rounded=0;whiteSpace=wrap;html=1;" vertex="1" parent="1">
                    <mxGeometry x="170.5" y="-679.25" width="60.5" height="23.5" as="geometry"/>
                </mxCell>
                <mxCell id="533" value="Schema Item" style="rounded=0;whiteSpace=wrap;html=1;fontSize=12;" vertex="1" parent="1">
                    <mxGeometry x="231" y="-679.25" width="79.5" height="23.5" as="geometry"/>
                </mxCell>
            </root>
        </mxGraphModel>
    </diagram>
</mxfile>